:FULLY-SPECIFIED
:FORCE-ALL-JOINTS-BE-3DOF
:DEGREES
2242
root -0.73289 13.7945 -16.6432 911.846 -26.0697 168.653
lfemur 11.1522 -0.934954 -15.1413
ltibia 32.5115 0 0
lfoot -23.601 36.8465 0
ltoes -44.367 0 0
rfemur -71.9757 -23.2246 9.27033
rtibia 73.3901 0 0
rfoot -6.40962 13.9719 0
rtoes 3.20781 0 0
lowerback 8.88879 1.99369 -13.3354
upperback -3.11253 0.682486 -2.03264
thorax -8.59939 0.904472 5.18751
lowerneck 0.884845 -11.9945 -12.4221
upperneck 5.34147 -16.7438 10.3546
head 3.3595 -8.4128 4.36617
lclavicle -4.8406e-15 -1.53906e-14 0
lhumerus -69.7319 -17.8787 104.02
lradius 102.285 0 0
lwrist 60.9743 0 0
lhand -11.6576 421.562 0
lfingers 7.12502 0 0
lthumb 15.043 -452.005 0
rclavicle -1.58933e-14 -8.30095e-15 0
rhumerus 49.0798 -9.78992 -58.7422
rradius 17.0984 0 0
rwrist 34.3859 0 0
rhand -19.9006 -402.737 0
rfingers 7.12502 0 0
rthumb 6.54749 287.512 0
2243
root -0.738182 13.7923 -16.6567 911.9 -26.0697 168.639
lfemur 11.299 -0.946725 -15.196
ltibia 32.4237 0 0
lfoot -23.5691 36.8327 0
ltoes -44.564 0 0
rfemur -72.2475 -23.3263 9.3088
rtibia 73.5283 0 0
rfoot -6.49467 14.025 0
rtoes 3.26489 0 0
lowerback 8.81033 1.97232 -13.3602
upperback -3.10084 0.661298 -2.0561
thorax -8.53695 0.889746 5.18074
lowerneck 0.881237 -12.0232 -12.3823
upperneck 5.25579 -16.7757 10.3854
head 3.33741 -8.42669 4.36928
lclavicle -2.1453e-15 -1.4389e-14 0
lhumerus -69.7277 -17.9077 104.03
lradius 102.252 0 0
lwrist 61.0244 0 0
lhand -11.6689 421.422 0
lfingers 7.12502 0 0
lthumb 14.9782 -451.84 0
rclavicle -1.27154e-14 -6.01836e-15 0
rhumerus 49.0869 -9.78264 -58.7708
rradius 17.1124 0 0
rwrist 34.3114 0 0
rhand -19.8847 -402.725 0
rfingers 7.12502 0 0
rthumb 6.5452 287.532 0
2244
root -0.745801 13.7866 -16.6712 911.828 -25.9678 168.714
lfemur 11.4459 -0.958496 -15.2506
ltibia 32.3359 0 0
lfoot -23.5372 36.8189 0
ltoes -44.6333 0 0
rfemur -72.5193 -23.428 9.34727
rtibia 73.6665 0 0
rfoot -6.57972 14.0781 0
rtoes 3.32197 0 0
lowerback 8.77237 1.9861 -13.3246
upperback -3.06658 0.693873 -2.06068
thorax -8.48138 0.899008 5.15182
lowerneck 0.817096 -12.0534 -12.2905
upperneck 5.19321 -16.7955 10.3189
head 3.31793 -8.43312 4.33317
lclavicle 5.5e-16 -1.33874e-14 0
lhumerus -69.7234 -17.9368 104.039
lradius 102.219 0 0
lwrist 61.0744 0 0
lhand -11.6802 421.282 0
lfingers 7.12502 0 0
lthumb 14.9133 -451.675 0
rclavicle -9.53751e-15 -3.73576e-15 0
rhumerus 49.0939 -9.77536 -58.7993
rradius 17.1091 0 0
rwrist 34.237 0 0
rhand -19.8688 -402.712 0
rfingers 7.12502 0 0
rthumb 6.5429 287.553 0
2245
root -0.751427 13.7849 -16.6824 911.821 -25.9564 168.756
lfemur 11.5928 -0.970267 -15.3053
ltibia 32.2482 0 0
lfoot -23.5053 36.8051 0
ltoes -44.7026 0 0
rfemur -72.7912 -23.5296 9.38575
rtibia 73.8048 0 0
rfoot -6.66477 14.1312 0
rtoes 3.37904 0 0
lowerback 8.75177 1.98223 -13.2884
upperback -3.05347 0.696837 -2.07223
thorax -8.45378 0.895961 5.11932
lowerneck 0.827318 -12.0863 -12.2726
upperneck 5.09905 -16.8326 10.3406
head 3.29266 -8.45041 4.33738
lclavicle 3.2453e-15 -1.23858e-14 0
lhumerus -69.7192 -17.9658 104.049
lradius 102.186 0 0
lwrist 61.1245 0 0
lhand -11.6916 421.143 0
lfingers 7.12502 0 0
lthumb 14.8485 -451.51 0
rclavicle -6.35963e-15 -1.45316e-15 0
rhumerus 49.1009 -9.76809 -58.8278
rradius 17.1059 0 0
rwrist 34.2051 0 0
rhand -19.853 -402.7 0
rfingers 7.12502 0 0
rthumb 6.54061 287.574 0
